<?xml version="1.0" encoding="UTF-8" standalone="no"?>
<!DOCTYPE svg PUBLIC "-//W3C//DTD SVG 1.1//EN"
 "http://www.w3.org/Graphics/SVG/1.1/DTD/svg11.dtd">
<!-- Generated by graphviz version 14.1.4 (20260321.0153)
 -->
<!-- Pages: 1 -->
<svg width="3228pt" height="1850pt"
 viewBox="0.00 0.00 3228.00 1850.00" xmlns="http://www.w3.org/2000/svg" xmlns:xlink="http://www.w3.org/1999/xlink">
<g id="graph0" class="graph" transform="scale(2.08333 2.08333) rotate(0) translate(4 883.83)">
<polygon fill="white" stroke="none" points="-4,4 -4,-883.83 1545.31,-883.83 1545.31,4 -4,4"/>
<g id="clust1" class="cluster">
<title>cluster./GL/General</title>
<path fill="none" stroke="black" d="M12,-82.01C12,-82.01 480.04,-82.01 480.04,-82.01 486.04,-82.01 492.04,-88.01 492.04,-94.01 492.04,-94.01 492.04,-606.27 492.04,-606.27 492.04,-612.27 486.04,-618.27 480.04,-618.27 480.04,-618.27 12,-618.27 12,-618.27 6,-618.27 0,-612.27 0,-606.27 0,-606.27 0,-94.01 0,-94.01 0,-88.01 6,-82.01 12,-82.01"/>
<text xml:space="preserve" text-anchor="middle" x="42.87" y="-90.61" font-family="Times,serif" font-size="22.00">General</text>
</g>
<g id="clust2" class="cluster">
<title>cluster./GL/Logic</title>
<path fill="none" stroke="black" d="M512.74,0C512.74,0 789.24,0 789.24,0 795.24,0 801.24,-6 801.24,-12 801.24,-12 801.24,-725.86 801.24,-725.86 801.24,-731.86 795.24,-737.86 789.24,-737.86 789.24,-737.86 512.74,-737.86 512.74,-737.86 506.74,-737.86 500.74,-731.86 500.74,-725.86 500.74,-725.86 500.74,-12 500.74,-12 500.74,-6 506.74,0 512.74,0"/>
<text xml:space="preserve" text-anchor="middle" x="534.62" y="-8.6" font-family="Times,serif" font-size="22.00">Logic</text>
</g>
<g id="clust3" class="cluster">
<title>cluster./GL/Split</title>
<path fill="none" stroke="black" d="M823.67,-0.05C823.67,-0.05 1417.13,-0.05 1417.13,-0.05 1423.13,-0.05 1429.13,-6.05 1429.13,-12.05 1429.13,-12.05 1429.13,-725.91 1429.13,-725.91 1429.13,-731.91 1423.13,-737.91 1417.13,-737.91 1417.13,-737.91 823.67,-737.91 823.67,-737.91 817.67,-737.91 811.67,-731.91 811.67,-725.91 811.67,-725.91 811.67,-12.05 811.67,-12.05 811.67,-6.05 817.67,-0.05 823.67,-0.05"/>
<text xml:space="preserve" text-anchor="middle" x="840.3" y="-8.65" font-family="Times,serif" font-size="22.00">Split</text>
</g>
<g id="clust4" class="cluster">
<title>cluster./GL/Interpolation</title>
<path fill="none" stroke="black" d="M762.12,-748.21C762.12,-748.21 1529.31,-748.21 1529.31,-748.21 1535.31,-748.21 1541.31,-754.21 1541.31,-760.21 1541.31,-760.21 1541.31,-867.83 1541.31,-867.83 1541.31,-873.83 1535.31,-879.83 1529.31,-879.83 1529.31,-879.83 762.12,-879.83 762.12,-879.83 756.12,-879.83 750.12,-873.83 750.12,-867.83 750.12,-867.83 750.12,-760.21 750.12,-760.21 750.12,-754.21 756.12,-748.21 762.12,-748.21"/>
<text xml:space="preserve" text-anchor="middle" x="815.5" y="-756.81" font-family="Times,serif" font-size="22.00">Interpolation</text>
</g>
<!-- GL/Logic/Semantics -->
<g id="node1" class="node">
<title>GL/Logic/Semantics</title>
<g id="a_node1"><a xlink:href="https://github.com/mgignoux/lean4-gl-coalgebras/tree/main/GL/Logic/Semantics.html" xlink:title="Semanticsâś“">
<ellipse fill="none" stroke="green" cx="664.67" cy="-486.48" rx="85.17" ry="29.06"/>
<text xml:space="preserve" text-anchor="middle" x="664.67" y="-481.03" font-family="Times,serif" font-size="16.00">Semanticsâś“</text>
</a>
</g>
</g>
<!-- GL/General/Soundness -->
<g id="node2" class="node">
<title>GL/General/Soundness</title>
<g id="a_node2"><a xlink:href="https://github.com/mgignoux/lean4-gl-coalgebras/tree/main/GL/General/Soundness.html" xlink:title="Soundnessâś“">
<ellipse fill="none" stroke="green" cx="384.22" cy="-164.57" rx="87.82" ry="29.06"/>
<text xml:space="preserve" text-anchor="middle" x="384.22" y="-159.12" font-family="Times,serif" font-size="16.00">Soundnessâś“</text>
</a>
</g>
</g>
<!-- GL/Logic/Semantics&#45;&gt;GL/General/Soundness -->
<g id="edge1" class="edge">
<title>GL/Logic/Semantics&#45;&gt;GL/General/Soundness</title>
<path fill="none" stroke="black" d="M640.03,-458.2C589.12,-399.76 472.38,-265.76 415.93,-200.97"/>
<polygon fill="black" stroke="black" points="418.91,-199.06 409.7,-193.82 413.63,-203.65 418.91,-199.06"/>
</g>
<!-- GL/Logic/FixedPointTheorem -->
<g id="node7" class="node">
<title>GL/Logic/FixedPointTheorem</title>
<g id="a_node7"><a xlink:href="https://github.com/mgignoux/lean4-gl-coalgebras/tree/main/GL/Logic/FixedPointTheorem.html" xlink:title="FixedPointTheoremâś“">
<ellipse fill="none" stroke="green" cx="650.99" cy="-82.56" rx="130.25" ry="29.06"/>
<text xml:space="preserve" text-anchor="middle" x="650.99" y="-77.11" font-family="Times,serif" font-size="16.00">FixedPointTheoremâś“</text>
</a>
</g>
</g>
<!-- GL/Logic/Semantics&#45;&gt;GL/Logic/FixedPointTheorem -->
<g id="edge7" class="edge">
<title>GL/Logic/Semantics&#45;&gt;GL/Logic/FixedPointTheorem</title>
<path fill="none" stroke="black" d="M663.68,-457.11C661.27,-386.08 655.13,-204.89 652.37,-123.38"/>
<polygon fill="black" stroke="black" points="655.88,-123.49 652.04,-113.61 648.88,-123.72 655.88,-123.49"/>
</g>
<!-- GL/Split/Soundness -->
<g id="node9" class="node">
<title>GL/Split/Soundness</title>
<g id="a_node9"><a xlink:href="https://github.com/mgignoux/lean4-gl-coalgebras/tree/main/GL/Split/Soundness.html" xlink:title="Soundnessâś“">
<ellipse fill="none" stroke="green" cx="919.5" cy="-284.21" rx="87.82" ry="29.06"/>
<text xml:space="preserve" text-anchor="middle" x="919.5" y="-278.76" font-family="Times,serif" font-size="16.00">Soundnessâś“</text>
</a>
</g>
</g>
<!-- GL/Logic/Semantics&#45;&gt;GL/Split/Soundness -->
<g id="edge9" class="edge">
<title>GL/Logic/Semantics&#45;&gt;GL/Split/Soundness</title>
<path fill="none" stroke="black" d="M698.77,-459.41C744.61,-423.03 826.11,-358.34 876.21,-318.57"/>
<polygon fill="black" stroke="black" points="878.35,-321.34 884,-312.38 874,-315.86 878.35,-321.34"/>
</g>
<!-- GL/General/Proof -->
<g id="node3" class="node">
<title>GL/General/Proof</title>
<g id="a_node3"><a xlink:href="https://github.com/mgignoux/lean4-gl-coalgebras/tree/main/GL/General/Proof.html" xlink:title="Proofâś“">
<ellipse fill="none" stroke="green" cx="384.22" cy="-569.21" rx="64.49" ry="29.06"/>
<text xml:space="preserve" text-anchor="middle" x="384.22" y="-563.76" font-family="Times,serif" font-size="16.00">Proofâś“</text>
</a>
</g>
</g>
<!-- GL/General/Proof&#45;&gt;GL/General/Soundness -->
<g id="edge2" class="edge">
<title>GL/General/Proof&#45;&gt;GL/General/Soundness</title>
<path fill="none" stroke="black" d="M384.22,-539.78C384.22,-468.54 384.22,-286.67 384.22,-205.16"/>
<polygon fill="black" stroke="black" points="387.72,-205.4 384.22,-195.4 380.72,-205.4 387.72,-205.4"/>
</g>
<!-- GL/General/Game -->
<g id="node5" class="node">
<title>GL/General/Game</title>
<g id="a_node5"><a xlink:href="https://github.com/mgignoux/lean4-gl-coalgebras/tree/main/GL/General/Game.html" xlink:title="Gameâś“">
<ellipse fill="none" stroke="green" cx="184.06" cy="-366.89" rx="65.55" ry="29.06"/>
<text xml:space="preserve" text-anchor="middle" x="184.06" y="-361.44" font-family="Times,serif" font-size="16.00">Gameâś“</text>
</a>
</g>
</g>
<!-- GL/General/Proof&#45;&gt;GL/General/Game -->
<g id="edge5" class="edge">
<title>GL/General/Proof&#45;&gt;GL/General/Game</title>
<path fill="none" stroke="black" d="M357.64,-542.34C321.9,-506.21 258.29,-441.91 218.79,-401.99"/>
<polygon fill="black" stroke="black" points="221.34,-399.59 211.82,-394.94 216.36,-404.51 221.34,-399.59"/>
</g>
<!-- GL/Logic/Syntax -->
<g id="node4" class="node">
<title>GL/Logic/Syntax</title>
<g id="a_node4"><a xlink:href="https://github.com/mgignoux/lean4-gl-coalgebras/tree/main/GL/Logic/Syntax.html" xlink:title="Syntaxâś“">
<ellipse fill="none" stroke="green" cx="687.71" cy="-688.8" rx="70.85" ry="29.06"/>
<text xml:space="preserve" text-anchor="middle" x="687.71" y="-683.35" font-family="Times,serif" font-size="16.00">Syntaxâś“</text>
</a>
</g>
</g>
<!-- GL/Logic/Syntax&#45;&gt;GL/Logic/Semantics -->
<g id="edge6" class="edge">
<title>GL/Logic/Syntax&#45;&gt;GL/Logic/Semantics</title>
<path fill="none" stroke="black" d="M684.36,-659.38C680.39,-624.55 673.76,-566.32 669.31,-527.18"/>
<polygon fill="black" stroke="black" points="672.81,-526.98 668.2,-517.44 665.85,-527.77 672.81,-526.98"/>
</g>
<!-- GL/Logic/Syntax&#45;&gt;GL/General/Proof -->
<g id="edge3" class="edge">
<title>GL/Logic/Syntax&#45;&gt;GL/General/Proof</title>
<path fill="none" stroke="black" d="M636.23,-668.51C582.93,-647.51 499.75,-614.73 443.68,-592.64"/>
<polygon fill="black" stroke="black" points="445.18,-589.47 434.6,-589.06 442.62,-595.98 445.18,-589.47"/>
</g>
<!-- GL/Split/CutProof -->
<g id="node8" class="node">
<title>GL/Split/CutProof</title>
<g id="a_node8"><a xlink:href="https://github.com/mgignoux/lean4-gl-coalgebras/tree/main/GL/Split/CutProof.html" xlink:title="CutProofâś“">
<ellipse fill="none" stroke="green" cx="919.5" cy="-486.53" rx="80.93" ry="29.06"/>
<text xml:space="preserve" text-anchor="middle" x="919.5" y="-481.08" font-family="Times,serif" font-size="16.00">CutProofâś“</text>
</a>
</g>
</g>
<!-- GL/Logic/Syntax&#45;&gt;GL/Split/CutProof -->
<g id="edge8" class="edge">
<title>GL/Logic/Syntax&#45;&gt;GL/Split/CutProof</title>
<path fill="none" stroke="black" d="M718.01,-662.36C759.51,-626.14 834.1,-561.05 879.96,-521.04"/>
<polygon fill="black" stroke="black" points="882.07,-523.83 887.31,-514.62 877.47,-518.56 882.07,-523.83"/>
</g>
<!-- GL/Split/Proof -->
<g id="node10" class="node">
<title>GL/Split/Proof</title>
<g id="a_node10"><a xlink:href="https://github.com/mgignoux/lean4-gl-coalgebras/tree/main/GL/Split/Proof.html" xlink:title="Proofâś“">
<ellipse fill="none" stroke="green" cx="1154.22" cy="-688.85" rx="64.49" ry="29.06"/>
<text xml:space="preserve" text-anchor="middle" x="1154.22" y="-683.4" font-family="Times,serif" font-size="16.00">Proofâś“</text>
</a>
</g>
</g>
<!-- GL/Logic/Syntax&#45;&gt;GL/Split/Proof -->
<g id="edge12" class="edge">
<title>GL/Logic/Syntax&#45;&gt;GL/Split/Proof</title>
<path fill="none" stroke="black" d="M758.82,-688.81C845.07,-688.82 989.88,-688.83 1078.27,-688.84"/>
<polygon fill="black" stroke="black" points="1078.04,-692.34 1088.04,-688.84 1078.04,-685.34 1078.04,-692.34"/>
</g>
<!-- GL/General/Completeness -->
<g id="node6" class="node">
<title>GL/General/Completeness</title>
<g id="a_node6"><a xlink:href="https://github.com/mgignoux/lean4-gl-coalgebras/tree/main/GL/General/Completeness.html" xlink:title="Completenessâś“">
<ellipse fill="none" stroke="green" cx="122.14" cy="-164.57" rx="102.14" ry="29.06"/>
<text xml:space="preserve" text-anchor="middle" x="122.14" y="-159.12" font-family="Times,serif" font-size="16.00">Completenessâś“</text>
</a>
</g>
</g>
<!-- GL/General/Game&#45;&gt;GL/General/Completeness -->
<g id="edge4" class="edge">
<title>GL/General/Game&#45;&gt;GL/General/Completeness</title>
<path fill="none" stroke="black" d="M175.19,-337.9C164.48,-302.92 146.43,-243.91 134.4,-204.61"/>
<polygon fill="black" stroke="black" points="137.81,-203.81 131.54,-195.28 131.12,-205.86 137.81,-203.81"/>
</g>
<!-- GL/Interpolation/Interpolants -->
<g id="node16" class="node">
<title>GL/Interpolation/Interpolants</title>
<g id="a_node16"><a xlink:href="https://github.com/mgignoux/lean4-gl-coalgebras/tree/main/GL/Interpolation/Interpolants.html" xlink:title="Interpolantsâś“">
<ellipse fill="none" stroke="green" cx="863.25" cy="-830.77" rx="93.13" ry="29.06"/>
<text xml:space="preserve" text-anchor="middle" x="863.25" y="-825.32" font-family="Times,serif" font-size="16.00">Interpolantsâś“</text>
</a>
</g>
</g>
<!-- GL/Logic/FixedPointTheorem&#45;&gt;GL/Interpolation/Interpolants -->
<g id="edge19" class="edge">
<title>GL/Logic/FixedPointTheorem&#45;&gt;GL/Interpolation/Interpolants</title>
<path fill="none" stroke="black" d="M659.31,-111.89C692.31,-228.19 813.97,-657.06 851.89,-790.72"/>
<polygon fill="black" stroke="black" points="848.48,-791.52 854.57,-800.19 855.21,-789.61 848.48,-791.52"/>
</g>
<!-- GL/Split/CutProof&#45;&gt;GL/Split/Soundness -->
<g id="edge11" class="edge">
<title>GL/Split/CutProof&#45;&gt;GL/Split/Soundness</title>
<path fill="none" stroke="black" d="M919.5,-457.11C919.5,-422.35 919.5,-364.3 919.5,-325.16"/>
<polygon fill="black" stroke="black" points="923,-325.18 919.5,-315.18 916,-325.18 923,-325.18"/>
</g>
<!-- GL/Split/ProofTransformations -->
<g id="node11" class="node">
<title>GL/Split/ProofTransformations</title>
<g id="a_node11"><a xlink:href="https://github.com/mgignoux/lean4-gl-coalgebras/tree/main/GL/Split/ProofTransformations.html" xlink:title="ProofTransformationsâś“">
<ellipse fill="none" stroke="green" cx="1218.3" cy="-284.21" rx="139.26" ry="29.06"/>
<text xml:space="preserve" text-anchor="middle" x="1218.3" y="-278.76" font-family="Times,serif" font-size="16.00">ProofTransformationsâś“</text>
</a>
</g>
</g>
<!-- GL/Split/CutProof&#45;&gt;GL/Split/ProofTransformations -->
<g id="edge14" class="edge">
<title>GL/Split/CutProof&#45;&gt;GL/Split/ProofTransformations</title>
<path fill="none" stroke="black" d="M957.95,-460.49C1011.36,-424.33 1108.12,-358.81 1167.45,-318.64"/>
<polygon fill="black" stroke="black" points="1169.06,-321.77 1175.38,-313.27 1165.14,-315.98 1169.06,-321.77"/>
</g>
<!-- GL/Split/Completeness -->
<g id="node12" class="node">
<title>GL/Split/Completeness</title>
<g id="a_node12"><a xlink:href="https://github.com/mgignoux/lean4-gl-coalgebras/tree/main/GL/Split/Completeness.html" xlink:title="Completenessâś“">
<ellipse fill="none" stroke="green" cx="957.66" cy="-82.61" rx="102.14" ry="29.06"/>
<text xml:space="preserve" text-anchor="middle" x="957.66" y="-77.16" font-family="Times,serif" font-size="16.00">Completenessâś“</text>
</a>
</g>
</g>
<!-- GL/Split/Soundness&#45;&gt;GL/Split/Completeness -->
<g id="edge15" class="edge">
<title>GL/Split/Soundness&#45;&gt;GL/Split/Completeness</title>
<path fill="none" stroke="black" d="M925.05,-254.9C931.62,-220.18 942.6,-162.16 949.98,-123.16"/>
<polygon fill="black" stroke="black" points="953.4,-123.92 951.82,-113.45 946.52,-122.62 953.4,-123.92"/>
</g>
<!-- GL/Split/Proof&#45;&gt;GL/Split/Soundness -->
<g id="edge10" class="edge">
<title>GL/Split/Proof&#45;&gt;GL/Split/Soundness</title>
<path fill="none" stroke="black" d="M1137.71,-660.4C1096.48,-589.32 988.94,-403.92 941.98,-322.97"/>
<polygon fill="black" stroke="black" points="945.1,-321.38 937.06,-314.48 939.05,-324.89 945.1,-321.38"/>
</g>
<!-- GL/Split/Proof&#45;&gt;GL/Split/ProofTransformations -->
<g id="edge13" class="edge">
<title>GL/Split/Proof&#45;&gt;GL/Split/ProofTransformations</title>
<path fill="none" stroke="black" d="M1158.88,-659.42C1170.16,-588.18 1198.96,-406.31 1211.87,-324.8"/>
<polygon fill="black" stroke="black" points="1215.31,-325.45 1213.42,-315.02 1208.4,-324.35 1215.31,-325.45"/>
</g>
<!-- GL/Split/Game -->
<g id="node13" class="node">
<title>GL/Split/Game</title>
<g id="a_node13"><a xlink:href="https://github.com/mgignoux/lean4-gl-coalgebras/tree/main/GL/Split/Game.html" xlink:title="Gameâś“">
<ellipse fill="none" stroke="green" cx="1343.58" cy="-486.53" rx="65.55" ry="29.06"/>
<text xml:space="preserve" text-anchor="middle" x="1343.58" y="-481.08" font-family="Times,serif" font-size="16.00">Gameâś“</text>
</a>
</g>
</g>
<!-- GL/Split/Proof&#45;&gt;GL/Split/Game -->
<g id="edge17" class="edge">
<title>GL/Split/Proof&#45;&gt;GL/Split/Game</title>
<path fill="none" stroke="black" d="M1179.36,-661.98C1213.1,-625.93 1273.1,-561.82 1310.48,-521.89"/>
<polygon fill="black" stroke="black" points="1313.01,-524.3 1317.29,-514.61 1307.9,-519.52 1313.01,-524.3"/>
</g>
<!-- GL/Interpolation/PartialInterpolation -->
<g id="node14" class="node">
<title>GL/Interpolation/PartialInterpolation</title>
<g id="a_node14"><a xlink:href="https://github.com/mgignoux/lean4-gl-coalgebras/tree/main/GL/Interpolation/PartialInterpolation.html" xlink:title="PartialInterpolationâś“">
<ellipse fill="none" stroke="green" cx="1126.77" cy="-830.77" rx="127.07" ry="29.06"/>
<text xml:space="preserve" text-anchor="middle" x="1126.77" y="-825.32" font-family="Times,serif" font-size="16.00">PartialInterpolationâś“</text>
</a>
</g>
</g>
<!-- GL/Split/ProofTransformations&#45;&gt;GL/Interpolation/PartialInterpolation -->
<g id="edge22" class="edge">
<title>GL/Split/ProofTransformations&#45;&gt;GL/Interpolation/PartialInterpolation</title>
<path fill="none" stroke="black" d="M1200.17,-313.41C1161.68,-378.34 1075.28,-540.63 1075.76,-688.85 1075.87,-725.18 1090.85,-763.83 1104.55,-791.6"/>
<polygon fill="black" stroke="black" points="1101.34,-793.03 1109.01,-800.34 1107.58,-789.84 1101.34,-793.03"/>
</g>
<!-- GL/Split/Completeness&#45;&gt;GL/Interpolation/Interpolants -->
<g id="edge20" class="edge">
<title>GL/Split/Completeness&#45;&gt;GL/Interpolation/Interpolants</title>
<path fill="none" stroke="black" d="M970.8,-111.89C987.25,-150.44 1014.36,-220.79 1023.21,-284.21 1035.66,-373.33 1036,-398.86 1015.75,-486.53 988.65,-603.87 921.57,-730.62 886.09,-792.45"/>
<polygon fill="black" stroke="black" points="883.21,-790.44 881.23,-800.85 889.27,-793.95 883.21,-790.44"/>
</g>
<!-- GL/Split/Game&#45;&gt;GL/Split/Completeness -->
<g id="edge16" class="edge">
<title>GL/Split/Game&#45;&gt;GL/Split/Completeness</title>
<path fill="none" stroke="black" d="M1299.97,-464.44C1239.36,-431.94 1129.18,-366.12 1058.9,-284.21 1016.9,-235.27 987.04,-165.88 971.08,-122.59"/>
<polygon fill="black" stroke="black" points="974.43,-121.56 967.75,-113.34 967.85,-123.93 974.43,-121.56"/>
</g>
<!-- GL/Interpolation/Interpolation -->
<g id="node15" class="node">
<title>GL/Interpolation/Interpolation</title>
<g id="a_node15"><a xlink:href="https://github.com/mgignoux/lean4-gl-coalgebras/tree/main/GL/Interpolation/Interpolation.html" xlink:title="Interpolationâś“">
<ellipse fill="none" stroke="green" cx="1423.41" cy="-830.77" rx="97.9" ry="29.06"/>
<text xml:space="preserve" text-anchor="middle" x="1423.41" y="-825.32" font-family="Times,serif" font-size="16.00">Interpolationâś“</text>
</a>
</g>
</g>
<!-- GL/Interpolation/PartialInterpolation&#45;&gt;GL/Interpolation/Interpolation -->
<g id="edge18" class="edge">
<title>GL/Interpolation/PartialInterpolation&#45;&gt;GL/Interpolation/Interpolation</title>
<path fill="none" stroke="black" d="M1254.29,-830.77C1274.11,-830.77 1294.44,-830.77 1313.82,-830.77"/>
<polygon fill="black" stroke="black" points="1313.59,-834.27 1323.59,-830.77 1313.59,-827.27 1313.59,-834.27"/>
</g>
<!-- GL/Interpolation/Interpolants&#45;&gt;GL/Interpolation/PartialInterpolation -->
<g id="edge21" class="edge">
<title>GL/Interpolation/Interpolants&#45;&gt;GL/Interpolation/PartialInterpolation</title>
<path fill="none" stroke="black" d="M956.53,-830.77C966.86,-830.77 977.53,-830.77 988.27,-830.77"/>
<polygon fill="black" stroke="black" points="987.95,-834.27 997.95,-830.77 987.95,-827.27 987.95,-834.27"/>
</g>
</g>
</svg>
